<svg width="324" height="485" viewBox="0 0 324 485" fill="none" xmlns="http://www.w3.org/2000/svg">
<path d="M145.658 214.304C145.297 213.332 143.631 213.059 143.41 214.304C142.788 217.522 141.69 220.629 140.152 223.524C139.953 223.922 139.718 224.334 139.467 224.746C139.187 224.01 138.907 223.237 138.656 222.478C137.654 219.415 136.733 216.307 135.178 213.471C134.441 212.19 132.156 212.691 132.303 214.245C132.703 217.44 133.364 220.598 134.278 223.686C134.64 225.034 134.956 226.477 135.347 227.891C134.979 227.817 134.61 227.744 134.219 227.655C132.15 227.227 130.137 226.563 128.22 225.674C127.978 225.541 127.699 225.49 127.426 225.529C127.152 225.568 126.899 225.694 126.704 225.889C126.508 226.085 126.382 226.338 126.343 226.611C126.304 226.885 126.355 227.163 126.488 227.405C127.741 229.511 129.539 230.601 131.817 231.441C133.463 232.117 135.203 232.539 136.976 232.693C137.218 233.043 137.571 233.302 137.978 233.429C139.268 234.438 141.663 233.982 141.479 231.956C141.479 231.816 141.479 231.669 141.427 231.529C142.901 229.438 143.712 226.411 144.574 224.305C145.82 221.234 146.83 217.441 145.658 214.304Z" fill="#FCD8D6"/>
<path d="M127.843 337.335C114.445 333.019 106.736 318.622 105.166 305.262C102.793 284.959 111.497 266.547 116.346 247.415C116.405 247.201 116.081 247.039 115.978 247.26C107.686 265.767 99.6751 287.102 102.807 307.774C104.628 319.822 113.125 339.058 127.578 339.316C127.815 339.304 128.041 339.209 128.216 339.049C128.391 338.888 128.504 338.671 128.536 338.435C128.567 338.2 128.515 337.961 128.389 337.76C128.262 337.559 128.069 337.408 127.843 337.335Z" fill="#FCD8D6"/>
<path d="M153.255 339.412C153.194 339.207 153.088 339.019 152.944 338.861C152.8 338.703 152.623 338.579 152.425 338.499C152.227 338.418 152.013 338.383 151.8 338.396C151.586 338.408 151.379 338.469 151.192 338.573C150.953 338.672 150.707 338.751 150.455 338.808C149.968 333.366 151.678 327.946 151.324 322.474C151.318 322.192 151.22 321.921 151.046 321.699C150.872 321.478 150.63 321.319 150.358 321.246C150.086 321.173 149.798 321.19 149.536 321.295C149.275 321.399 149.054 321.586 148.907 321.826C148.248 322.833 147.508 323.787 146.696 324.676C147.75 319.064 149.121 313.563 148.649 307.738C148.376 304.328 146.136 303.599 143.07 304.055C141.445 304.384 139.913 305.065 138.582 306.051C137.012 307.06 131.551 310.212 132.243 306.007C132.98 301.588 135.884 297.597 137.564 293.487C139.039 289.805 139.776 285.136 138.891 281.225C137.771 276.262 132.744 275.128 128.381 275.835C124.999 276.387 121.623 277.212 118.852 274.634C116.774 272.69 116.442 269.376 116.39 266.725C116.295 261.445 117.864 255.56 120.002 250.751C120.033 250.699 120.042 250.636 120.027 250.576C120.012 250.517 119.973 250.466 119.921 250.435C119.868 250.403 119.805 250.394 119.745 250.41C119.686 250.425 119.635 250.463 119.604 250.516C115.329 257.144 111.607 268.19 116.656 275.43C119.788 279.922 125.131 278.744 129.752 278.169C138.368 277.109 137.218 286.948 135.243 292.309C133.99 295.726 124.379 309.984 133.032 310.89C137.506 311.376 140.439 306.979 144.721 306.596C148.406 306.265 143.91 324.484 143.527 326.863C143.467 327.096 143.468 327.341 143.532 327.573C143.595 327.806 143.718 328.018 143.889 328.188C144.059 328.358 144.271 328.481 144.504 328.545C144.736 328.608 144.981 328.61 145.215 328.55C146.582 328.205 147.82 327.474 148.782 326.443C148.516 331.127 147.308 335.745 147.897 340.48C147.901 340.69 147.952 340.897 148.047 341.085C148.142 341.273 148.278 341.437 148.445 341.564C148.613 341.692 148.807 341.78 149.013 341.822C149.22 341.863 149.433 341.858 149.637 341.806C150.057 341.673 150.484 341.585 150.904 341.489C152.747 348.78 149.43 356.822 148.531 364.046C148.369 365.291 150.447 365.519 150.705 364.341C152.452 356.49 155.931 347.447 153.255 339.412Z" fill="#FCD8D6"/>
<path d="M297.275 429.295C296.862 416.157 294.519 403.114 294.29 389.983C293.59 350.097 286.854 309.887 271.878 272.807C265.83 257.749 258.486 243.243 249.93 229.453C241.211 215.46 230.031 202.499 220.494 189.817C211.768 178.218 205.96 166.818 205.459 152.155C205.223 145.122 204.523 138.163 204.722 131.086C204.794 127.761 205.187 124.452 205.894 121.202C206.667 117.778 207.368 114.007 208.547 110.73C209.63 107.733 206.631 105.31 203.948 105.627L203.668 105.442C196.512 101.171 186.039 101.885 178.131 102.821C173.437 103.354 168.815 104.399 164.349 105.936C161.947 106.693 159.637 107.718 157.465 108.992C156.59 109.036 155.757 109.383 155.109 109.972C154.461 110.562 154.038 111.358 153.913 112.225L153.817 112.35C152.402 114.376 153.817 116.43 155.696 117.086C158.851 124.207 159.772 132.588 160.391 140.159C160.782 144.982 160.944 149.821 161.062 154.659C161.172 158.901 161.452 163.136 160.553 167.319C160.543 167.379 160.528 167.438 160.509 167.495C160.442 167.621 160.361 167.738 160.288 167.856C159.521 169.085 159.082 170.49 159.013 171.936C156.418 177.614 151.709 181.922 146.904 186.076C139.88 192.211 131.817 198.102 127.167 206.328C126.649 207.241 126.345 208.259 126.277 209.305C126.209 210.352 126.379 211.401 126.775 212.372C127.171 213.344 127.781 214.213 128.562 214.915C129.342 215.617 130.271 216.133 131.279 216.425C132.641 216.742 134.065 216.668 135.386 216.21C136.707 215.753 137.872 214.931 138.745 213.84C139.99 215.164 141.653 216.019 143.455 216.263C145.054 219.525 148.813 221.418 152.984 220.682C153.795 220.534 154.583 220.343 155.357 220.122C155.533 222.176 156.422 224.104 157.87 225.572C160.391 228.09 165.41 229.298 168.483 226.941C169.264 226.338 170.038 225.719 170.805 225.093C171.029 227.38 172.122 229.495 173.859 231.002C175.596 232.509 177.845 233.293 180.143 233.194C175.035 238.754 169.884 244.241 165.403 250.383C161.496 255.766 166.626 262.902 172.36 263.528L172.22 263.742C171.412 264.93 170.963 266.326 170.928 267.763C170.893 269.199 171.272 270.616 172.021 271.843C169.387 275.814 166.793 279.811 164.238 283.832C161.695 287.823 164.061 291.609 167.451 292.986C165.344 296.241 163.258 299.511 161.194 302.795C158.327 307.376 160.796 312.215 164.673 314.343C161.193 319.348 158.094 324.606 155.401 330.073C153.758 333.461 153.927 337.335 156.699 340.126C157.72 341.111 158.975 341.821 160.347 342.188C157.944 347.166 162.204 352.498 166.98 353.271C165.918 355.723 165.022 358.242 164.297 360.813C162.676 366.586 166.972 370.585 171.748 370.828C168.028 375.792 164.728 381.056 161.88 386.566C161.054 381.941 160.28 377.302 159.47 372.677C158.512 367.183 157.856 361.159 155.254 356.136C152.033 349.921 143.012 351.924 141.118 357.977C137.153 370.688 136.976 384.423 135.502 397.591C134.921 403.849 133.769 410.041 132.06 416.09C131.383 409.029 131.257 401.925 131.685 394.844C132.274 380.851 134.434 366.697 133.682 352.66C133.247 344.412 122.185 343.013 119.524 350.745C114.844 364.333 113.09 378.848 109.692 392.774C107.997 399.734 105.771 407.503 103.059 413.439C102.081 415.579 100.974 417.657 99.7427 419.662C99.3576 416.388 99.2245 413.089 99.3447 409.794C99.5069 401.339 100.767 392.936 101.821 384.563C102.89 376.05 104.393 367.625 105.72 359.17C107.194 349.737 108.41 339.603 105.55 330.302C103.951 325.147 96.3525 323.556 93.5814 328.74C88.2528 338.705 85.0321 349.457 82.4231 360.408C83.1299 353.094 82.8822 345.719 81.6861 338.469C80.7059 332.865 72.842 332.71 70.2404 336.996C58.5294 356.144 54.1589 377.972 48.6977 399.439C48.3587 375.696 53.9673 351.511 61.868 329.654C63.9832 323.799 54.697 321.324 52.5818 327.098C46.3983 344.036 38.8587 360.636 32.9185 377.699C33.6555 361.534 35.3874 345.465 40.2885 330.059C40.3292 329.878 40.3052 329.69 40.2207 329.525C40.1362 329.361 39.9966 329.231 39.8263 329.159C39.6559 329.087 39.4657 329.078 39.2888 329.132C39.112 329.186 38.9597 329.3 38.8587 329.455C25.0472 356.703 25.6737 388.429 23.3816 418.219C23.0057 423.101 31.2528 424.25 31.9677 419.382C33.2585 410.796 35.1599 402.313 37.6574 393.997C36.9538 406.1 37.8308 418.243 40.2664 430.12C40.8191 432.749 43.5534 434.59 46.1624 434.59C49.1105 434.59 50.9677 432.668 52.0585 430.12C59.2443 413.093 62.3766 394.697 67.3145 376.956C66.8797 379.077 66.4301 381.198 65.9805 383.296C62.8409 398.121 59.5243 413.262 60.8215 428.499C61.3816 435.238 69.5329 437.646 73.4022 431.909C79.1434 423.403 82.8506 414.161 85.6364 404.587C85.4375 406.988 85.2974 409.389 85.2385 411.797C85.0395 420.111 85.8944 429.56 90.8102 436.571C93.0212 439.686 97.1779 441.417 100.701 439.163C108.24 434.34 113.23 427.005 116.819 418.911C117.659 426.275 119.553 433.515 123.334 439.885C123.961 440.924 124.816 441.809 125.833 442.472C126.85 443.135 128.004 443.56 129.209 443.716C130.414 443.871 131.638 443.752 132.79 443.368C133.942 442.984 134.993 442.344 135.863 441.498C144.184 433.117 147.7 421.997 149.697 410.663C152.527 423.676 158.659 443.413 173.325 440.121C173.274 440.459 173.23 440.791 173.185 441.13C172.633 441.343 172.058 441.52 170.856 441.984C168.645 442.823 166.434 443.729 164.312 444.738C159.808 446.821 156.162 450.396 153.994 454.857C151.783 459.798 153.154 467.082 159.455 468.282C160.487 468.474 161.504 468.614 162.521 468.717C163.317 475.389 168.27 480.979 174.91 483.092C181.55 485.206 189.141 483.343 195.45 481.295C208.871 476.936 221.142 470.168 231.283 460.329C233.494 458.208 235.624 455.954 237.806 453.804C238.645 455.428 239.658 456.957 240.828 458.362C245.412 463.849 252.288 465.307 259.024 464.143C263.196 463.407 267.205 461.802 271.111 460.064C271.214 466.692 278.238 472.789 285.409 468.525C298.078 460.955 297.688 442.197 297.275 429.295ZM163.766 115.053L163.442 114.501L164.304 114.125C164.094 114.416 163.914 114.726 163.766 115.053ZM214.31 349.074C211.429 354.487 208.539 359.929 205.555 365.327C195.413 378.627 185.014 391.419 178.536 407.039C177.062 410.582 178.742 413.947 181.484 416.009C180.062 418.749 178.757 421.54 177.607 424.39C175.992 423.537 174.141 423.237 172.338 423.536C172.161 423.271 171.969 423.006 171.8 422.733C171.038 421.496 170.365 420.207 169.788 418.874L169.545 418.226C169.176 417.291 168.852 416.341 168.527 415.391C167.901 413.55 167.363 411.672 166.84 409.794C165.941 406.531 165.167 403.239 164.459 399.925C167.68 401.582 171.955 401.236 174.497 398.452C189.354 382.056 203.107 364.694 215.666 346.481C215.231 347.373 214.767 348.234 214.31 349.074Z" fill="white"/>
<path d="M157.023 239.342C155.468 238.606 153.883 237.869 152.313 237.17C151.65 236.868 151.001 236.544 150.367 236.19C150.065 236.016 149.753 235.861 149.431 235.726C149.142 235.561 148.822 235.458 148.491 235.423C148.159 235.389 147.825 235.425 147.508 235.527C147.306 235.32 147.051 235.172 146.771 235.1C145.943 234.875 145.071 234.875 144.243 235.1C143.945 235.182 143.665 235.322 143.421 235.512C143.177 235.701 142.973 235.938 142.82 236.206C142.667 236.475 142.569 236.772 142.531 237.078C142.493 237.385 142.517 237.697 142.599 237.994C142.867 238.65 143.206 239.275 143.609 239.858C143.123 241.647 143.255 243.753 143.196 245.469C143.115 248.003 142.71 251.243 143.55 253.688C143.638 253.977 143.807 254.234 144.038 254.429C144.268 254.624 144.55 254.749 144.85 254.787C145.149 254.826 145.454 254.778 145.727 254.648C145.999 254.519 146.229 254.313 146.388 254.056C147.5 252.009 147.442 249.085 147.655 246.817C147.714 246.198 147.825 245.536 147.95 244.851C149.667 246.824 151.76 249.719 154.082 250.868C154.324 251.003 154.6 251.065 154.876 251.045C155.152 251.025 155.417 250.925 155.636 250.756C155.856 250.587 156.022 250.358 156.112 250.096C156.203 249.835 156.214 249.552 156.146 249.284C155.63 246.854 153.102 244.232 151.62 242.325L151.473 242.126C152.733 242.605 154.001 243.046 155.276 243.496C157.354 244.232 160.324 245.153 161.356 247.274C161.414 247.366 161.497 247.44 161.595 247.487C161.693 247.533 161.803 247.551 161.911 247.537C162.019 247.523 162.121 247.478 162.204 247.408C162.287 247.338 162.349 247.245 162.381 247.141C163.575 243.407 160.015 240.815 157.023 239.342Z" fill="#FCD8D6"/>
<path d="M177.578 221.749C174.055 223.546 170.864 225.431 167.032 226.609C165.558 227.081 163.981 227.478 162.418 227.817C158.406 226.707 154.126 227.1 150.383 228.922C153.711 224.908 155.401 219.787 155.114 214.583C155.107 214.345 155.039 214.112 154.916 213.908C154.794 213.704 154.62 213.534 154.413 213.416C154.206 213.298 153.972 213.234 153.733 213.232C153.495 213.231 153.26 213.29 153.051 213.405C147.678 216.225 142.563 223.582 142.659 230.151L142.386 230.483C142.214 230.666 142.091 230.891 142.029 231.135C141.968 231.379 141.97 231.635 142.036 231.878C142.102 232.121 142.229 232.343 142.405 232.523C142.581 232.703 142.801 232.835 143.042 232.906V232.994L142.372 232.876C140.301 232.486 139.424 235.528 141.487 236.065C148.784 237.95 159.691 237.656 163.701 230.137C169.036 228.531 175.021 226.072 177.873 222.036C178.043 221.866 177.77 221.668 177.578 221.749ZM148.835 233.723C149.248 233.65 149.668 233.554 150.11 233.473C153.058 232.898 156.006 232.169 158.954 231.44C156.242 233.495 152.505 233.922 148.85 233.723H148.835Z" fill="#86B79D"/>
<path d="M156.875 21.6933C163.803 13.5924 171.792 2.54574 183.407 2.05232C192.929 1.67673 192.2 14.3878 193.725 20.7949C193.772 20.9573 193.855 21.107 193.969 21.2328C194.082 21.3585 194.222 21.4569 194.379 21.5207C194.536 21.5845 194.705 21.6119 194.874 21.601C195.043 21.5901 195.207 21.5411 195.354 21.4577C197.418 19.9038 199.437 18.3131 201.471 16.7223C202.577 19.4325 202.208 22.3414 203.439 25C204.508 27.3051 206.667 27.9458 208.989 28.152C210.057 36.0835 204.043 44.4054 201.361 51.5489C201.26 51.8918 201.279 52.2584 201.412 52.5897C201.546 52.9211 201.787 53.1978 202.098 53.3753C204.655 54.5315 205.746 53.5373 207.898 51.9834C208.966 51.2469 208.34 49.0744 206.925 49.6709C206.593 49.8109 205.871 50.1496 205.186 50.4074C207.964 42.8367 212.504 34.8831 211.119 26.7233C211.049 26.4736 210.9 26.2535 210.694 26.0965C210.487 25.9396 210.235 25.8545 209.976 25.8543C206.291 25.6775 205.318 24.3814 204.817 21.0305C204.539 18.7621 203.837 16.5661 202.746 14.5572C202.675 14.4352 202.58 14.3286 202.467 14.2433C202.354 14.1581 202.226 14.0959 202.089 14.0603C201.952 14.0247 201.809 14.0165 201.669 14.036C201.529 14.0556 201.394 14.1025 201.272 14.1742C199.319 15.6103 197.41 17.12 195.487 18.5929C194.219 11.4788 193.998 0.734082 185.029 0.0565507C172.293 -0.945017 162.218 11.5598 156.639 21.5019C156.558 21.6565 156.772 21.8333 156.875 21.6933Z" fill="black"/>
<path d="M137.086 195.893C136.92 195.735 136.716 195.622 136.493 195.565C136.271 195.508 136.038 195.51 135.816 195.569C135.594 195.628 135.391 195.743 135.226 195.903C135.062 196.063 134.941 196.262 134.875 196.482C133.991 199.428 134.035 203.361 136.15 205.74C136.195 205.961 136.309 206.163 136.476 206.315C136.643 206.468 136.854 206.563 137.079 206.586C137.298 206.743 137.527 206.886 137.764 207.014C138.848 207.588 140.057 206.159 139.106 205.276L138.914 205.099C140.455 202.205 139.187 198.103 137.086 195.893Z" fill="#7B6A58"/>
<path d="M142.268 195.591C142.813 194.553 142.702 193.573 142.68 192.417C142.68 190.811 142.68 189.199 142.57 187.586C142.558 187.352 142.466 187.13 142.307 186.957C142.149 186.785 141.936 186.673 141.704 186.642C141.472 186.61 141.236 186.661 141.037 186.785C140.839 186.909 140.69 187.099 140.617 187.321C139.681 190.392 139.732 194.103 141.287 196.976C141.442 197.255 141.943 197.145 141.906 196.814C141.87 196.482 141.847 196.232 141.811 195.945C141.907 195.919 141.997 195.875 142.075 195.814C142.154 195.754 142.219 195.678 142.268 195.591Z" fill="#7B6A58"/>
<path d="M158.947 190.826C158.798 190.826 158.656 190.884 158.551 190.989C158.446 191.094 158.387 191.237 158.387 191.385C158.387 191.534 158.446 191.676 158.551 191.781C158.656 191.886 158.798 191.945 158.947 191.945C159.763 192.022 160.561 192.228 161.313 192.556C162.05 192.888 162.669 193.418 163.398 193.757C164.128 194.095 165.241 193.086 164.445 192.402C162.865 191.226 160.91 190.666 158.947 190.826Z" fill="#7B6A58"/>
<path d="M162.985 201.305C162.985 201.4 162.985 201.496 162.941 201.592C162.83 201.579 162.718 201.591 162.613 201.627C162.508 201.664 162.412 201.724 162.334 201.802C162.255 201.881 162.195 201.977 162.158 202.082C162.122 202.187 162.11 202.299 162.123 202.409C162.504 204.132 162.655 205.898 162.572 207.66C162.484 209.28 165.019 209.28 165.1 207.66C165.096 207.636 165.096 207.611 165.1 207.586C165.315 207.702 165.556 207.763 165.8 207.763C166.045 207.763 166.285 207.702 166.501 207.586C165.572 208.735 164.621 209.855 163.663 210.945C158.217 217.153 151.429 223.155 143.248 225.217H143.196C146.078 221.299 147.95 217.256 144.339 212.182C144.271 212.086 144.181 212.008 144.076 211.954C143.972 211.9 143.856 211.872 143.738 211.872C143.621 211.872 143.505 211.9 143.4 211.954C143.296 212.008 143.206 212.086 143.137 212.182C142.418 213.164 141.768 214.195 141.192 215.268C141.748 212.463 142.486 209.698 143.403 206.99C143.624 206.327 143.867 205.65 144.14 204.972C144.544 205.126 144.984 205.163 145.409 205.08C145.833 204.997 146.226 204.796 146.542 204.501C147.604 203.492 147.353 201.673 147.162 200.399C147.155 200.355 147.14 200.312 147.117 200.274C147.194 200.333 147.282 200.378 147.376 200.403C147.47 200.429 147.568 200.436 147.665 200.424C147.761 200.412 147.854 200.38 147.939 200.332C148.023 200.283 148.097 200.218 148.156 200.141C149.07 199.007 150.515 197.446 150.426 195.855C150.404 195.67 150.344 195.491 150.252 195.33C150.16 195.168 150.036 195.026 149.888 194.912C151.632 192.873 153.87 191.316 156.389 190.39C156.559 190.344 156.703 190.231 156.79 190.078C156.877 189.924 156.9 189.743 156.853 189.573C156.806 189.403 156.694 189.259 156.54 189.172C156.387 189.085 156.205 189.062 156.035 189.109C154.073 189.475 152.221 190.289 150.625 191.488C150.695 191.379 150.745 191.26 150.773 191.134C151.122 188.88 151.176 186.59 150.935 184.322C150.898 183.784 150.198 183.328 149.748 183.836C149.212 184.407 148.756 185.049 148.392 185.743C148.142 186.31 148.031 186.929 147.817 187.511C147.714 187.791 148.149 187.96 148.289 187.71C148.613 187.016 148.995 186.35 149.431 185.721C149.365 186.458 149.262 187.253 149.144 188.012C148.949 188.177 148.827 188.413 148.805 188.667C148.695 189.385 148.621 190.107 148.584 190.832C148.589 191.012 148.636 191.187 148.722 191.345C148.808 191.503 148.93 191.638 149.078 191.74C149.225 191.842 149.395 191.908 149.573 191.932C149.751 191.955 149.933 191.937 150.102 191.878C146.778 194.522 144.383 198.572 142.651 202.402C142.135 202.966 141.694 203.595 141.339 204.272C141.221 204.515 141.531 204.781 141.73 204.567C140.204 208.355 139.039 212.278 138.251 216.284C138.251 216.394 138.207 216.512 138.185 216.63C137.465 215.039 136.436 213.606 135.156 212.418C134.973 212.237 134.727 212.135 134.47 212.135C134.213 212.135 133.967 212.237 133.785 212.418C130.837 215.842 131.375 219.929 132.945 223.729C130.336 222.706 127.616 223.125 125.037 225.364C124.87 225.53 124.764 225.747 124.733 225.98C124.702 226.213 124.75 226.45 124.867 226.653C125.397 227.797 126.211 228.786 127.233 229.525C126.219 229.334 125.191 229.233 124.16 229.223C123.976 229.223 123.8 229.296 123.67 229.426C123.54 229.556 123.467 229.732 123.467 229.916C123.467 230.099 123.54 230.275 123.67 230.405C123.8 230.535 123.976 230.608 124.16 230.608C127.148 230.649 130.024 231.757 132.267 233.73C133.004 234.393 134.109 233.355 133.387 232.611C132.57 231.784 131.615 231.106 130.564 230.608C131.5 230.577 132.418 230.338 133.25 229.908C134.083 229.479 134.809 228.87 135.377 228.126C135.426 228.068 135.463 228.002 135.486 227.929C135.508 227.857 135.516 227.781 135.509 227.706C135.698 227.712 135.885 227.668 136.051 227.578C136.216 227.489 136.355 227.356 136.453 227.195C136.55 227.034 136.603 226.849 136.606 226.661C136.608 226.472 136.561 226.287 136.468 226.123C134.529 222.691 132.274 218.243 134.566 214.583C135.981 216.244 136.975 218.222 137.463 220.349C137.153 222.411 137.065 224.547 137.779 226.174C138.236 227.191 139.644 226.749 139.939 225.887C140.499 224.282 140.484 222.301 140.528 220.408C141.438 218.169 142.484 215.987 143.661 213.876C147.759 221.645 137.463 227.132 134.537 233.671C134.439 233.849 134.389 234.049 134.391 234.252C134.393 234.454 134.448 234.653 134.549 234.828C134.651 235.004 134.796 235.15 134.971 235.253C135.145 235.356 135.344 235.413 135.546 235.417C138.804 235.564 142.047 236.153 145.304 236.3H145.783C145.672 236.529 145.628 236.785 145.655 237.038C145.683 237.291 145.781 237.531 145.939 237.731C146.096 237.93 146.307 238.082 146.547 238.168C146.786 238.253 147.045 238.27 147.294 238.215L147.729 238.112C145.643 241.404 146.565 243.93 148.466 245.315C148.355 245.909 148.127 246.475 147.796 246.981C147.464 247.486 147.036 247.921 146.535 248.26C142.592 250.889 143.639 241.411 143.882 240.27C143.889 240.244 143.89 240.218 143.887 240.191C143.883 240.165 143.874 240.14 143.861 240.117C143.848 240.094 143.83 240.074 143.809 240.058C143.788 240.042 143.764 240.03 143.738 240.023C143.712 240.016 143.686 240.015 143.659 240.018C143.633 240.022 143.608 240.031 143.585 240.044C143.562 240.057 143.542 240.075 143.526 240.096C143.51 240.117 143.498 240.141 143.491 240.167C142.666 242.59 140.602 251.486 146.24 250.337C148.525 249.866 149.704 248.216 150.191 246.206C153.065 247.126 156.632 246.117 157.045 242.45C157.874 243.195 158.848 243.762 159.904 244.118C160.961 244.474 162.08 244.61 163.191 244.519C165.624 244.365 167.768 242.347 167.208 239.791C165.896 233.723 159.042 233.318 153.065 234.224C155.129 230.247 150.928 227.375 146.815 226.034C148.812 225.409 150.725 224.544 152.512 223.457C152.532 223.697 152.64 223.922 152.816 224.088C152.991 224.254 153.222 224.349 153.463 224.355C154.967 224.326 156.431 223.863 157.679 223.022C158.416 222.529 157.966 221.225 157.045 221.549L155.814 221.947C155.748 221.808 155.646 221.689 155.519 221.601L155.423 221.542C158.678 219.052 161.709 216.282 164.481 213.264C169.847 207.609 174.925 200.899 178.108 193.616C177.996 193.991 178.022 194.393 178.182 194.75C178.375 195.043 178.655 195.268 178.984 195.392C179.312 195.517 179.671 195.534 180.01 195.442C181.41 195.163 182.53 194.205 183.592 193.314C184.653 192.423 183.304 190.921 182.199 191.502C181.482 191.881 180.788 192.301 180.12 192.762C179.967 192.874 179.807 192.978 179.641 193.071C179.643 192.944 179.606 192.82 179.537 192.714C179.468 192.607 179.368 192.524 179.251 192.474C179.135 192.425 179.006 192.411 178.881 192.434C178.756 192.458 178.641 192.518 178.551 192.607C178.956 191.613 179.288 190.619 179.656 189.61C179.726 189.341 179.707 189.056 179.603 188.799C179.498 188.541 179.312 188.325 179.074 188.181C177.836 187.253 176.863 187.253 175.389 187.592C174.047 187.909 174.416 189.853 175.706 189.912C176.085 189.893 176.465 189.93 176.833 190.022C176.022 192.354 175.018 194.616 173.834 196.783C173.267 194.866 172.391 193.055 171.239 191.421C171.11 191.218 170.919 191.062 170.695 190.975C170.47 190.889 170.223 190.876 169.991 190.939C169.759 191.003 169.553 191.139 169.403 191.328C169.254 191.516 169.169 191.748 169.161 191.989C169.22 194.198 168.771 196.532 169.456 198.72C169.519 198.909 169.646 199.071 169.815 199.176C169.985 199.282 170.186 199.325 170.384 199.298C170.582 199.27 170.764 199.175 170.899 199.028C171.033 198.88 171.112 198.691 171.122 198.491V198.447C171.085 198.153 171.063 197.858 171.055 197.571C171.173 198.219 171.262 198.889 171.321 199.574C171.329 199.727 171.368 199.877 171.435 200.015C171.502 200.153 171.596 200.276 171.711 200.377C170.274 202.614 168.722 204.774 167.061 206.85C167.184 206.419 167.136 205.958 166.928 205.561C166.191 204.265 165.55 203.3 165.741 201.746C165.933 200.193 163.287 199.699 162.985 201.305ZM127.181 226.388C129.805 224.503 132.34 225.188 134.75 227.316L134.684 227.353C132.023 229.768 128.869 229.164 127.181 226.388ZM145.407 203.352C145.196 203.529 144.942 203.648 144.67 203.698C144.936 203.057 145.216 202.424 145.511 201.791L145.82 201.651C145.909 202.25 145.761 202.86 145.407 203.352ZM146.668 199.552C146.685 199.694 146.735 199.83 146.815 199.949C146.718 199.897 146.609 199.866 146.498 199.861L146.668 199.552ZM161.128 236.006C164.032 236.544 168.026 241.301 163.589 242.678C161.187 243.415 157.907 242.111 156.897 239.821C156.588 239.128 155.423 239.475 155.468 240.211C155.74 244.291 152.645 245.263 150.515 244.32C150.599 242.278 150.274 240.24 149.557 238.326C149.471 238.106 149.316 237.92 149.115 237.795C153.087 236.728 156.875 235.203 161.128 236.006ZM151.591 232.257C151.701 234.187 149.549 234.025 148.37 234.069C144.685 234.202 141.052 233.428 137.389 233.163C138.698 230.975 140.192 228.903 141.855 226.97C141.94 227.005 142.029 227.027 142.12 227.036C144.381 227.227 146.588 227.826 148.636 228.803C150.051 229.481 151.495 230.556 151.591 232.257Z" fill="#7B6A58"/>
<path d="M158.409 215.217C158.588 215.23 158.767 215.2 158.932 215.129C159.122 215.012 159.278 214.847 159.383 214.65C159.488 214.454 159.538 214.232 159.529 214.01C159.517 213.611 159.468 213.214 159.382 212.824C159.293 212.006 159.205 211.189 159.109 210.372C159.062 210.221 158.969 210.09 158.842 209.997C158.715 209.904 158.562 209.854 158.405 209.854C158.248 209.854 158.095 209.904 157.968 209.997C157.841 210.09 157.748 210.221 157.701 210.372C157.613 211.108 157.532 211.911 157.443 212.677C157.384 213.229 157.311 213.531 157.288 213.929C157.259 214.164 157.3 214.403 157.404 214.616C157.509 214.83 157.674 215.008 157.878 215.129C158.045 215.2 158.227 215.23 158.409 215.217Z" fill="#7B6A58"/>
<path d="M168.085 216.034C168.22 215.973 168.337 215.879 168.427 215.76C168.516 215.642 168.574 215.503 168.595 215.356C168.616 215.21 168.6 215.06 168.548 214.921C168.497 214.782 168.411 214.658 168.299 214.561C167.962 214.291 167.577 214.086 167.164 213.957C166.957 213.876 166.021 213.678 165.948 213.464C165.909 213.353 165.833 213.26 165.734 213.198C165.634 213.137 165.516 213.112 165.4 213.128C165.283 213.143 165.176 213.198 165.096 213.284C165.016 213.369 164.968 213.48 164.96 213.597C164.983 213.945 165.129 214.274 165.373 214.525C165.038 214.607 164.714 214.728 164.407 214.885C164.217 215 164.069 215.174 163.986 215.381C163.903 215.587 163.889 215.815 163.948 216.03C164.006 216.245 164.133 216.435 164.309 216.571C164.485 216.707 164.7 216.783 164.923 216.785C165.243 216.749 165.559 216.682 165.866 216.587C165.94 216.69 166.029 216.837 166.11 216.97C166.263 217.237 166.449 217.484 166.662 217.706C161.864 220.913 157.264 224.408 152.888 228.171C152.77 228.267 152.888 228.458 153.043 228.37C157.844 224.744 162.844 221.388 168.019 218.317H168.181H168.284C168.216 218.523 168.226 218.747 168.312 218.946C168.397 219.145 168.552 219.307 168.748 219.4C171.24 220.533 174.079 220.639 176.649 219.694C177.858 219.26 177.776 217.139 176.325 217.294C174.033 217.485 171.732 217.551 169.434 217.492C177.069 213 184.955 208.942 192.863 204.848C193.364 204.59 193.003 203.706 192.472 203.927C190.748 204.664 189.031 205.4 187.313 206.136C187.881 203.817 188.316 201.467 188.972 199.155C189.048 198.973 189.049 198.769 188.974 198.586C188.899 198.404 188.755 198.259 188.574 198.183C188.392 198.107 188.187 198.106 188.005 198.18C187.822 198.255 187.677 198.399 187.601 198.58C186.81 199.757 186.266 201.081 186.003 202.474C185.739 203.866 185.761 205.298 186.068 206.681C180.004 209.557 174.144 212.842 168.527 216.513C168.369 216.363 168.222 216.203 168.085 216.034Z" fill="#7B6A58"/>
<path d="M171.77 208C171.617 208.053 171.485 208.153 171.391 208.285C171.298 208.417 171.248 208.575 171.248 208.736C171.248 208.898 171.298 209.056 171.391 209.187C171.485 209.319 171.617 209.419 171.77 209.473C172.805 209.793 173.878 209.971 174.961 210.003C176.054 210.189 177.177 210.077 178.211 209.679C178.451 209.598 178.652 209.428 178.771 209.204C178.89 208.98 178.919 208.72 178.852 208.475C178.785 208.231 178.628 208.021 178.411 207.889C178.195 207.757 177.936 207.712 177.688 207.764C176.383 207.97 174.902 207.683 173.516 207.698C173.642 207.375 173.803 207.066 173.996 206.777C174.034 206.708 174.053 206.631 174.053 206.552C174.052 206.474 174.031 206.396 173.992 206.328C173.952 206.26 173.896 206.203 173.828 206.163C173.761 206.123 173.684 206.101 173.605 206.1C173.133 206.1 171.394 205.128 171.239 205.96C171.232 205.985 171.231 206.012 171.234 206.038C171.238 206.065 171.246 206.09 171.26 206.113C171.273 206.136 171.291 206.156 171.312 206.172C171.333 206.188 171.357 206.2 171.383 206.207C171.408 206.213 171.435 206.215 171.461 206.211C171.488 206.208 171.513 206.199 171.536 206.186C171.559 206.172 171.579 206.155 171.595 206.134C171.611 206.113 171.623 206.089 171.63 206.063C172.036 206.303 172.454 206.522 172.883 206.718C172.536 207.227 172.182 207.823 171.77 208Z" fill="#7B6A58"/>
<path d="M175.861 202.697C175.993 202.829 176.15 202.934 176.323 203.006C176.495 203.077 176.68 203.114 176.867 203.114C177.054 203.114 177.239 203.077 177.412 203.006C177.584 202.934 177.741 202.829 177.873 202.697C177.943 202.627 178.01 202.553 178.072 202.476C178.332 202.555 178.608 202.555 178.868 202.476C179.378 202.349 179.829 202.05 180.145 201.631C180.462 201.211 180.625 200.696 180.607 200.171C180.594 199.612 180.417 199.07 180.099 198.61C180.136 198.426 180.126 198.236 180.07 198.057C180.013 197.878 179.912 197.716 179.775 197.587C179.639 197.458 179.472 197.366 179.29 197.32C179.108 197.273 178.917 197.274 178.735 197.321C178.579 197.352 178.43 197.41 178.293 197.491C178.066 197.511 177.847 197.589 177.659 197.718C177.471 197.847 177.318 198.023 177.217 198.227C177.048 198.573 176.871 198.919 176.687 199.258C176.502 199.597 176.347 199.869 176.163 200.171C176.097 200.296 176.016 200.407 175.942 200.525C175.868 200.643 175.581 201.018 175.861 200.679C175.604 200.953 175.461 201.313 175.461 201.688C175.461 202.063 175.604 202.424 175.861 202.697Z" fill="#7B6A58"/>
<path d="M167.99 222.788C167.252 222.407 166.433 222.208 165.602 222.206C165.201 222.193 164.802 222.274 164.437 222.442C164.083 222.768 163.686 223.046 163.258 223.267C163.103 223.326 163.162 223.561 163.325 223.517C163.907 223.355 164.695 223.701 165.329 223.738C166.041 223.8 166.748 223.911 167.444 224.07C168.189 224.232 168.764 223.142 167.99 222.788Z" fill="#7B6A58"/>
<path d="M186.856 212.463C184.029 213.264 181.053 213.392 178.167 212.838C177.984 212.807 177.797 212.838 177.634 212.927C177.472 213.015 177.343 213.156 177.27 213.325C177.197 213.495 177.183 213.685 177.231 213.864C177.279 214.042 177.385 214.2 177.533 214.311C179.095 215.173 180.839 215.654 182.622 215.713C184.405 215.772 186.177 215.407 187.792 214.65C189.06 214.112 188.146 212.094 186.856 212.463Z" fill="#7B6A58"/>
<path d="M189.892 208.632C191.943 208.78 194.005 208.639 196.017 208.212C196.754 208.036 196.437 206.938 195.714 207.1C193.799 207.507 191.85 207.732 189.892 207.77C189.787 207.784 189.691 207.835 189.622 207.915C189.552 207.994 189.514 208.096 189.514 208.201C189.514 208.307 189.552 208.409 189.622 208.488C189.691 208.567 189.787 208.618 189.892 208.632Z" fill="#7B6A58"/>
<path d="M194.89 202.889C196.606 201.016 197.989 198.864 198.98 196.526C199.415 195.473 197.75 194.862 197.19 195.79C195.966 197.8 194.698 199.789 193.446 201.785C192.893 202.654 194.197 203.677 194.89 202.889Z" fill="#7B6A58"/>
<path d="M157.782 245.926C156.957 245.292 155.851 246.721 156.669 247.399C158.843 249.122 158.667 252.627 158.188 255.072C157.797 257.061 155.903 261.045 153.198 259.778C151.444 258.953 151.488 255.455 151.459 253.887C151.387 251.697 151.706 249.513 152.402 247.435C152.608 246.868 151.665 246.471 151.429 247.023C150.029 250.19 147.678 261.715 153.64 262.017C160.944 262.363 162.705 249.652 157.782 245.926Z" fill="black"/>
<path d="M146.506 115.722C148.444 111.016 150.36 106.31 151.989 101.501C152.262 100.684 151.009 100.367 150.707 101.155C147.309 110.096 142.909 119.029 140.713 128.367C140.701 128.409 140.698 128.453 140.704 128.496C140.709 128.539 140.723 128.581 140.744 128.619C140.766 128.657 140.795 128.691 140.829 128.717C140.864 128.744 140.903 128.764 140.945 128.776C140.987 128.787 141.031 128.79 141.075 128.785C141.118 128.78 141.16 128.766 141.198 128.744C141.236 128.723 141.269 128.694 141.296 128.659C141.323 128.625 141.343 128.586 141.354 128.544C142.615 125.171 143.978 121.835 145.356 118.506C146.093 125.266 150.98 130.687 154.525 136.556C159.241 144.37 159.595 152.913 154.569 160.586C150.442 166.905 144.015 171.633 138.355 176.516C134.478 179.867 130.085 183.6 127.388 188.174C127.388 187.364 127.469 186.561 127.521 185.758C128.008 177.71 128.992 169.699 130.469 161.772C131.854 154.238 134.832 147.242 136.777 139.878C136.789 139.85 136.79 139.819 136.779 139.792C136.767 139.764 136.746 139.742 136.718 139.73C136.691 139.719 136.66 139.718 136.633 139.729C136.605 139.74 136.583 139.762 136.571 139.789C130.063 152.537 126.762 167.642 125.862 181.833C125.361 189.853 124.963 197.88 124.315 205.893C123.578 214.826 122.199 223.619 121.006 232.486C120.979 232.605 120.999 232.73 121.062 232.835C121.125 232.94 121.226 233.017 121.344 233.05C121.462 233.083 121.588 233.07 121.697 233.013C121.805 232.956 121.887 232.859 121.927 232.743C125.789 220.297 126.459 206.762 127.086 193.631L127.174 193.506C135.045 180.375 149.874 173.747 157.848 160.807C161.814 154.363 162.02 146.815 159.322 139.863C156.072 131.158 147.516 125.274 146.506 115.722Z" fill="black"/>
<path d="M200.757 102.172C200.692 102.172 200.631 102.197 200.585 102.243C200.539 102.289 200.514 102.35 200.514 102.415C200.514 102.479 200.539 102.541 200.585 102.587C200.631 102.632 200.692 102.658 200.757 102.658C200.821 102.658 200.883 102.632 200.929 102.587C200.974 102.541 201 102.479 201 102.415C201 102.35 200.974 102.289 200.929 102.243C200.883 102.197 200.821 102.172 200.757 102.172Z" fill="black"/>
<path d="M5.5313 421.045C7.30012 400.889 9.5185 381.226 15.1124 361.717C20.3377 343.6 27.951 326.264 36.9351 309.709C55.0212 276.429 78.6275 246.706 101.541 216.689C104.43 212.903 107.349 209.17 109.958 205.207C110.606 216.549 111.667 227.919 114.807 238.775C115.08 239.717 116.347 239.29 116.222 238.384C115.058 229.753 113.517 221.269 112.847 212.565C112.567 208.934 112.353 205.296 112.147 201.658L112.264 201.466C112.341 201.333 112.365 201.177 112.332 201.027C112.299 200.878 112.212 200.745 112.088 200.656C111.83 195.936 111.601 191.215 111.351 186.487C110.849 178.062 109.913 169.151 112.088 160.873C113.127 156.889 115.205 152.846 115.876 148.707C118.087 143.059 120.298 137.432 122.162 131.622C126.312 118.535 129.23 105.11 133.306 91.9935C136.107 83.0015 140.676 71.8223 152.21 75.1436C154.723 75.8801 157.104 76.8743 159.418 75.0184C161.396 73.4199 162.984 71.392 164.06 69.0887C165.137 66.7855 165.674 64.2673 165.631 61.7256C165.631 61.5857 165.395 61.5415 165.373 61.7256C164.71 66.0706 160.774 75.9979 154.93 74.5177C151.031 73.5308 148.002 72.4703 143.926 73.5308C135.628 75.6886 133.505 85.314 131.397 92.3544C127.528 105.227 124.624 118.38 120.681 131.246C119.34 135.606 117.645 139.87 115.935 144.119C115.876 143.78 115.809 143.442 115.721 143.096C115.669 142.897 115.382 142.985 115.411 143.184C115.511 143.795 115.562 144.413 115.566 145.032C112.552 152.522 109.589 160.034 108.609 168.091C108.604 168.154 108.614 168.217 108.638 168.276C108.662 168.335 108.7 168.387 108.748 168.429C108.796 168.471 108.853 168.5 108.915 168.516C108.976 168.531 109.041 168.532 109.103 168.518C108.366 174.917 108.749 181.59 109.103 187.894C109.375 192.658 109.582 197.467 109.84 202.306C103.737 208.853 98.5414 216.298 93.0728 223.346C87.3635 230.711 81.6959 238.117 76.0701 245.565C64.7497 260.566 53.8641 275.906 43.863 291.85C24.0228 323.451 9.6659 358.197 4.80167 395.343C3.63443 403.858 3.23484 412.459 3.60772 421.045C3.60772 421.3 3.70905 421.545 3.88942 421.725C4.06979 421.905 4.31443 422.006 4.56951 422.006C4.82459 422.006 5.06923 421.905 5.2496 421.725C5.42997 421.545 5.5313 421.3 5.5313 421.045Z" fill="black"/>
<path d="M322.701 447.278C314.329 445.779 305.729 446.151 297.518 448.368C297.599 440.465 297.076 432.527 296.574 424.683C295.874 413.718 294.783 402.782 293.413 391.875C290.816 370.743 286.532 349.852 280.603 329.402C274.486 308.553 265.944 288.043 254.808 269.36C245.146 253.158 232.249 239.165 220.825 224.223C211.855 212.578 204.403 199.841 198.648 186.318C197.093 171.486 199.01 156.565 200.977 141.859C201.928 134.781 203.564 127.822 204.441 120.745C205.178 114.735 205.768 107.739 202.717 102.23C202.672 102.157 202.605 102.1 202.525 102.068C202.648 101.944 202.737 101.789 202.783 101.621C202.829 101.452 202.832 101.274 202.789 101.104C202.747 100.934 202.662 100.778 202.542 100.65C202.423 100.522 202.272 100.427 202.105 100.375L201.803 100.294C203.756 96.8985 207.013 91.412 203.667 87.8623C200.963 84.9902 195.14 85.3584 191.581 84.6072C188.964 84.1651 186.541 82.9491 184.623 81.1164C182.095 78.5462 182.781 73.5016 183.216 70.3128C183.953 65.084 185.596 60.0688 187.1 55.0242L187.225 54.7738C188.642 51.7982 189.753 48.6867 190.541 45.4872C190.622 45.1852 190.726 44.8317 190.836 44.4561C192.915 45.929 196.15 45.1926 198.545 44.1689C199.614 43.6976 198.84 42.0332 197.771 42.3278C196.003 42.8065 193.438 43.7344 191.875 42.3278C191.741 42.225 191.62 42.1063 191.514 41.9743C191.92 40.3247 192.133 38.6088 191.514 37.5188C191.465 37.4368 191.397 37.367 191.317 37.3147C191.237 37.2624 191.146 37.2289 191.051 37.2169C190.956 37.2048 190.859 37.2145 190.768 37.2451C190.678 37.2757 190.595 37.3265 190.527 37.3936C190.379 34.7424 190.608 32.0986 190.195 29.4695C190.084 28.733 189.163 28.733 188.721 29.0718C186.23 31.0823 183.96 33.0118 180.953 33.9765C180.953 30.1175 182.427 26.5163 183.422 22.812C183.577 22.2523 182.994 21.9356 182.53 22.1271C179.022 23.6 175.779 25.7136 172.212 27.1055C167.252 29.057 167.245 21.9503 166.736 18.7983C166.692 18.548 166.323 18.629 166.309 18.8573C166.102 21.9651 165.962 28.1586 170.193 28.7256C171.748 28.9318 173.48 27.9892 174.836 27.3559C177.216 26.2512 179.486 24.9256 181.845 23.7841C180.673 27.5473 179.051 31.0749 179.214 35.1327C179.219 35.267 179.253 35.3985 179.315 35.5177C179.377 35.6369 179.465 35.7408 179.573 35.8219C179.68 35.9029 179.804 35.9592 179.935 35.9865C180.067 36.0137 180.203 36.0114 180.334 35.9796C183.643 35.3905 186.134 33.4978 188.618 31.4431C188.817 34.9707 188.028 38.6235 189.156 42.0185C189.156 42.1805 189.104 42.3499 189.075 42.4972C188.526 45.0039 187.827 47.4754 186.982 49.8985C185.301 54.7959 182.184 61.7332 176.302 62.3592C170.613 62.9704 166.493 56.6591 164.267 52.3582C161.825 47.7148 160.559 42.5436 160.582 37.2979C160.582 36.6719 159.602 36.5246 159.477 37.1506C157.708 46.069 164.37 63.4933 174.917 64.2739C178.97 64.5759 181.999 62.4033 184.299 59.4723C183.269 62.5761 182.424 65.7387 181.771 68.943C180.791 73.9508 180.297 80.0781 184.498 83.7603C187.977 86.7871 193.047 87.1111 197.381 87.8918C199.113 88.2011 201.456 88.5472 202.437 90.1968C203.911 92.6418 200.83 97.1194 199.702 99.0857C199.602 99.2606 199.548 99.4585 199.548 99.6602C184.259 95.6368 168.07 96.7602 153.485 102.856C153.382 102.901 153.418 103.063 153.529 103.026C169.094 97.933 185.838 97.6762 201.552 102.289C201.692 102.337 201.841 102.349 201.987 102.326C201.972 102.387 201.972 102.45 201.987 102.51C205.797 116.112 200.867 130.436 198.862 144.016C196.924 157.147 194.779 170.816 196.548 184.086C196.479 184.169 196.432 184.268 196.412 184.373C196.391 184.479 196.397 184.588 196.43 184.69C196.563 185.184 196.71 185.67 196.85 186.163C196.968 186.9 197.093 187.636 197.241 188.372C197.262 188.484 197.312 188.588 197.386 188.675C197.459 188.761 197.554 188.827 197.661 188.866C202.864 204.847 213.506 218.935 223.751 231.97C235.749 247.229 248.072 262.017 257.27 279.198C278.444 318.701 288.401 363.345 292.646 407.672C293.965 421.48 294.157 435.318 294.916 449.133C286.492 451.711 278.488 455.946 270.927 461.145C267.6 463.439 264.458 465.99 261.53 468.774C259.922 470.428 257.973 471.713 255.818 472.538C254.325 472.935 252.735 472.726 251.396 471.956C248.956 470.785 249.45 469.194 249.583 467.338C249.996 461.513 240.989 458.199 236.479 457.581C229.662 456.66 222.726 458.869 216.454 461.307C209.158 464.15 202.23 467.847 195.148 471.168C188.684 474.187 180.408 478.068 173.038 476.743C168.358 475.896 170.134 467.574 169.802 464.223C167.945 445.333 142.85 446.387 128.825 447.204C105.764 448.552 83.3145 462.743 59.9661 457.765C62.7078 453.169 69.1934 451.814 73.7924 449.855C79.003 447.646 83.4398 444.509 84.619 438.654C86.9774 426.974 69.3556 428.292 62.5088 428.579C52.5592 429.006 42.8676 431.392 33.0286 432.806C26.8201 433.812 20.5392 434.305 14.2497 434.279C10.0193 434.184 3.52626 433.815 1.24154 429.551C1.02781 429.146 0.504537 429.5 0.644568 429.897C3.97583 437.542 17.8021 435.944 24.2287 435.509C35.1806 434.773 45.8451 432.247 56.7086 430.87C61.3602 430.394 66.0407 430.264 70.7117 430.479C76.1139 430.612 83.9114 431.643 82.4374 438.845C79.9832 450.857 61.3075 447.307 56.8855 458.317C56.7973 458.642 56.8417 458.989 57.0088 459.281C57.1759 459.574 57.4522 459.789 57.7772 459.878C76.4382 464.555 95.1729 456.756 113.126 452.47C122.258 450.297 131.095 449.789 140.44 449.958C147.758 450.091 156.536 450.459 162.484 455.29C167.643 459.48 166.766 466.337 166.979 472.228C167.134 476.728 169.352 479.365 173.87 479.88C180.71 480.661 188.013 477.568 194.123 474.858C201.589 471.551 208.76 467.604 216.307 464.481C224.127 461.248 233.759 458.118 241.83 462.22C243.679 463.163 246.657 464.967 246.753 467.309C246.834 469.253 246.532 470.616 247.667 472.332C250.047 475.925 255.037 475.866 258.515 474.32C262.982 472.317 266.342 467.692 270.307 464.827C275.365 461.135 280.733 457.887 286.352 455.121C289.167 453.75 292.088 452.607 295.086 451.704C295.181 453.294 295.277 454.885 295.395 456.468C295.416 456.696 295.52 456.907 295.689 457.061C295.857 457.214 296.077 457.3 296.305 457.3C296.534 457.3 296.753 457.214 296.922 457.061C297.09 456.907 297.195 456.696 297.216 456.468C297.341 454.664 297.415 452.853 297.466 451.041C305.608 449.033 314.062 448.616 322.362 449.811C323.814 450.017 324.175 447.543 322.701 447.278Z" fill="black"/>
<path d="M151.348 385.616C157.09 376.491 157.281 364.59 155.711 354.28C154.016 343.13 149.159 332.445 144.443 322.289C139.534 311.699 134.184 301.263 130.528 290.143C126.106 276.637 124.035 262.291 118.176 249.219C118.133 249.129 118.07 249.051 117.992 248.99V248.917C117.993 248.745 117.96 248.575 117.896 248.416C118.367 249.152 118.846 249.889 119.303 250.625C121.352 253.88 124.123 258.211 127.794 259.838C131.11 261.311 132.216 257.813 132.304 255.213C132.407 252.96 136.726 251.207 138.2 249.322C139.858 247.171 139.999 244.211 139.468 241.663C139.313 240.926 138.355 241.199 138.281 241.825C137.846 245.345 137.67 247.9 134.596 250.088C133.513 250.868 130.646 252.098 130.263 253.483C130.005 254.425 130.683 257.437 129.43 257.901C128.531 258.262 126.887 256.495 126.364 256.001C123.556 253.38 121.249 250.066 119.06 246.928C117.542 244.756 115.722 242.466 114.638 240.035C114.52 239.77 114.144 239.969 114.196 240.227C114.749 242.974 116.215 245.625 117.741 248.092C117.581 247.904 117.368 247.769 117.131 247.703C116.893 247.638 116.641 247.645 116.407 247.724C116.174 247.804 115.969 247.952 115.821 248.148C115.672 248.345 115.586 248.582 115.574 248.828C115.508 256.642 114.948 264.397 114.498 272.152C113.909 275.077 112.93 277.911 111.587 280.577C110.85 274.641 110.231 268.182 110.599 261.915C113.059 256.379 114.673 250.505 115.39 244.491C115.471 243.681 114.321 243.489 113.916 244.1C110.599 249.462 109.192 255.604 108.757 261.937C106.9 266.223 104.453 270.981 100.65 273.868C97.5839 262.475 106.686 248.828 113.334 240.396C113.386 240.33 113.412 240.246 113.407 240.162C113.402 240.077 113.366 239.997 113.306 239.937C113.246 239.877 113.167 239.842 113.082 239.837C112.997 239.832 112.914 239.858 112.847 239.91C107.511 244.329 103.9 250.471 101.136 256.73C98.5935 262.497 96.5152 269.758 99.021 275.878C99.0665 276.036 99.1473 276.182 99.2573 276.305C99.3673 276.427 99.5037 276.523 99.6562 276.586C99.8086 276.648 99.9733 276.675 100.138 276.665C100.302 276.655 100.462 276.607 100.606 276.526C104.21 274.074 106.671 270.163 108.609 266.172C108.715 271.986 109.163 277.79 109.951 283.552C109.959 283.76 110.034 283.96 110.165 284.123C110.295 284.286 110.474 284.403 110.675 284.457C110.877 284.511 111.09 284.5 111.284 284.424C111.479 284.349 111.644 284.214 111.756 284.038C112.623 282.734 113.387 281.365 114.041 279.943C113.71 286.716 113.821 293.503 114.373 300.262C115.567 313.348 119.864 334.315 136.977 333.402C137.509 333.37 138.01 333.137 138.376 332.748C138.742 332.36 138.946 331.847 138.946 331.314C138.946 330.781 138.742 330.268 138.376 329.88C138.01 329.492 137.509 329.258 136.977 329.226C121.883 327.908 119.709 307.133 118.655 295.593C117.557 283.581 117.748 271.526 117.866 259.507C117.866 258.837 117.866 258.167 117.903 257.496C119.922 268.153 123.121 278.721 125.325 289.274C127.528 299.827 132.916 309.895 137.397 319.557C142.173 329.867 146.978 340.221 149.683 351.29C150.982 356.443 151.633 361.737 151.621 367.05C151.577 373.133 149.992 378.627 148.592 384.475C148.517 384.655 148.478 384.849 148.478 385.045C148.478 385.241 148.517 385.435 148.592 385.615C148.667 385.796 148.777 385.961 148.915 386.099C149.054 386.238 149.218 386.347 149.399 386.422C149.58 386.497 149.774 386.536 149.97 386.536C150.166 386.536 150.36 386.497 150.541 386.423C150.722 386.348 150.886 386.238 151.025 386.1C151.163 385.961 151.273 385.797 151.348 385.616ZM111.417 255.265C111.789 253.38 112.311 251.528 112.98 249.727C112.559 251.607 112.038 253.463 111.417 255.287V255.265Z" fill="black"/>
<path d="M181.197 40.4062C180.973 40.4265 180.765 40.5296 180.614 40.6951C180.463 40.8607 180.379 41.0768 180.379 41.301C180.379 41.5253 180.463 41.7414 180.614 41.9069C180.765 42.0725 180.973 42.1755 181.197 42.1958C181.42 42.1755 181.628 42.0725 181.779 41.9069C181.931 41.7414 182.015 41.5253 182.015 41.301C182.015 41.0768 181.931 40.8607 181.779 40.6951C181.628 40.5296 181.42 40.4265 181.197 40.4062Z" fill="black"/>
</svg>
